<?xml version="1.0" standalone="no"?>
<!DOCTYPE svg PUBLIC "-//W3C//DTD SVG 20010904//EN"
 "http://www.w3.org/TR/2001/REC-SVG-20010904/DTD/svg10.dtd">
<svg version="1.0" xmlns="http://www.w3.org/2000/svg"
 width="220.000000pt" height="110.000000pt" viewBox="0 0 220.000000 110.000000"
 preserveAspectRatio="xMidYMid meet">

<g transform="translate(0.000000,110.000000) scale(0.100000,-0.100000)"
fill="#000000" stroke="none">
<path d="M823 963 c-22 -8 -14 -23 11 -23 13 0 27 -7 30 -16 24 -61 -22 -240
-104 -409 -130 -268 -242 -386 -280 -295 -17 42 -7 174 21 275 12 44 23 94 23
110 1 27 -2 30 -29 30 -27 0 -35 -8 -75 -78 -95 -163 -228 -371 -240 -375 -21
-7 -6 140 25 238 30 96 122 329 137 347 17 21 1 45 -29 41 -31 -4 -42 -21
-103 -163 -70 -165 -112 -302 -117 -386 -5 -75 -5 -75 27 -102 21 -18 43 -27
66 -27 45 0 71 28 149 160 33 55 63 100 66 100 4 0 5 -28 2 -62 -5 -75 14
-121 66 -155 64 -43 140 -20 203 64 45 60 140 235 178 329 32 82 66 199 75
266 12 89 -40 156 -102 131z"/>
<path d="M1983 884 c-21 -25 -37 -51 -35 -57 2 -7 -11 -42 -29 -80 -25 -50
-37 -66 -49 -61 -8 3 -39 10 -69 14 -29 5 -56 11 -58 14 -3 3 5 23 17 45 25
44 21 71 -10 71 -14 0 -29 -17 -50 -54 -40 -70 -44 -73 -121 -88 -53 -11 -64
-16 -64 -33 0 -18 6 -20 53 -18 28 1 52 -2 52 -6 0 -5 -11 -33 -24 -61 -14
-29 -32 -80 -41 -114 -19 -70 -101 -176 -125 -161 -19 12 -6 94 24 154 14 28
26 56 26 64 0 7 -19 27 -42 45 -85 65 -149 32 -222 -116 -35 -69 -98 -152
-117 -152 -21 0 -6 74 32 166 l41 98 -22 18 c-32 26 -60 22 -108 -13 -24 -17
-45 -29 -48 -26 -3 3 20 56 51 117 58 116 64 145 31 145 -24 0 -52 -47 -128
-210 -77 -165 -110 -263 -106 -311 3 -34 6 -39 28 -39 19 0 26 6 30 31 11 50
62 134 120 197 30 33 56 55 57 50 2 -5 -8 -34 -22 -64 -34 -73 -34 -141 0
-174 33 -34 77 -33 104 1 l21 26 26 -31 c37 -45 73 -42 117 9 l34 40 37 -35
c46 -43 65 -44 111 -4 27 24 35 27 35 14 0 -27 55 -75 86 -75 49 0 162 146
152 197 -2 13 -20 -5 -60 -57 -73 -98 -95 -117 -111 -101 -29 29 1 183 60 312
l35 77 46 4 c26 3 64 3 85 0 34 -4 38 -7 32 -26 -27 -85 -35 -128 -33 -176 3
-46 6 -55 23 -58 18 -2 22 6 32 70 14 81 46 171 122 331 28 60 51 112 51 117
0 7 -23 20 -35 20 -2 0 -21 -21 -42 -46z m-583 -368 c0 -36 -116 -218 -147
-230 -25 -10 -13 61 22 132 35 70 97 138 116 127 5 -4 9 -16 9 -29z"/>
<path d="M1809 303 c-20 -53 -22 -88 -5 -102 9 -8 20 -11 23 -7 9 8 32 94 33
119 0 29 -39 21 -51 -10z"/>
</g>
</svg>
